<?xml version="1.0" standalone="no"?>
<!DOCTYPE svg PUBLIC "-//W3C//DTD SVG 20010904//EN"
 "http://www.w3.org/TR/2001/REC-SVG-20010904/DTD/svg10.dtd">
<svg version="1.0" xmlns="http://www.w3.org/2000/svg"
 width="225.000000pt" height="225.000000pt" viewBox="0 0 225.000000 225.000000"
 preserveAspectRatio="xMidYMid meet">

<g transform="translate(0.000000,225.000000) scale(0.100000,-0.100000)"
fill="#000000" stroke="none">
<path d="M520 1395 l0 -384 38 -10 c191 -52 318 -66 572 -66 169 0 252 5 335
18 104 17 131 23 225 47 l40 11 0 384 0 385 -605 0 -605 0 0 -385z m1120 -9
l0 -314 -112 -21 c-262 -51 -541 -51 -806 0 l-112 21 0 314 0 314 515 0 515 0
0 -314z"/>
<path d="M650 1579 l1 -44 231 -160 c127 -88 237 -160 243 -160 6 0 116 72
243 160 l231 160 1 44 c0 30 -4 42 -12 38 -7 -2 -112 -73 -233 -157 -121 -85
-224 -153 -230 -153 -6 0 -109 68 -230 153 -121 84 -226 155 -232 157 -9 4
-13 -8 -13 -38z"/>
<path d="M579 795 c-54 -29 -62 -119 -14 -151 12 -8 46 -19 75 -23 54 -9 70
-21 70 -58 0 -47 -76 -68 -134 -38 -26 14 -31 14 -44 1 -45 -44 103 -80 176
-42 38 20 52 44 52 91 0 51 -34 82 -100 91 -38 5 -55 13 -66 30 -30 44 20 85
84 70 46 -12 65 -11 69 1 12 35 -116 56 -168 28z"/>
<path d="M820 641 l0 -171 30 0 30 0 0 112 0 112 40 -82 c53 -110 67 -110 119
1 l39 82 1 -112 1 -113 25 0 25 0 0 170 0 170 -28 0 c-26 0 -32 -8 -72 -97
-24 -54 -46 -101 -50 -106 -3 -4 -27 39 -53 95 -42 96 -48 103 -76 106 l-31 3
0 -170z"/>
<path d="M1190 790 c0 -17 7 -20 50 -20 l50 0 0 -150 0 -150 25 0 25 0 0 150
0 150 45 0 c38 0 45 3 45 20 0 19 -7 20 -120 20 -113 0 -120 -1 -120 -20z"/>
<path d="M1498 640 l-3 -170 28 0 c27 0 27 1 27 65 l0 65 45 0 c57 0 110 21
126 51 6 13 12 41 12 63 0 32 -6 45 -32 68 -29 26 -37 28 -116 28 l-84 0 -3
-170z m172 110 c46 -46 9 -100 -70 -100 l-50 0 0 60 0 60 50 0 c37 0 55 -5 70
-20z"/>
</g>
</svg>
