<svg xmlns="http://www.w3.org/2000/svg" xmlns:xlink="http://www.w3.org/1999/xlink" width="20" height="20" viewBox="0 0 20 20">
  <defs>
    <clipPath id="clip-smtp">
      <rect width="20" height="20"/>
    </clipPath>
  </defs>
  <g id="smtp" clip-path="url(#clip-smtp)">
    <g id="smtp-2" data-name="smtp" transform="translate(0.094 -0.467)">
      <path id="mailing" d="M4.031,13.582H3.1a1.55,1.55,0,0,1-1.548-1.548V3.26L8.271,7.44a3.077,3.077,0,0,0,3.269,0L18.264,3.26V7.971a.774.774,0,1,0,1.548,0V3.1a3.1,3.1,0,0,0-3.1-3.1H3.1A3.1,3.1,0,0,0,0,3.1v8.938a3.1,3.1,0,0,0,3.1,3.1h.936a.774.774,0,0,0,0-1.548Z" transform="translate(0 2.063)" fill="#333870"/>
      <path id="Path_142" data-name="Path 142" d="M3.11-1.074a1.052,1.052,0,0,1-.167.583,1.111,1.111,0,0,1-.49.405,1.834,1.834,0,0,1-.764.146,1.719,1.719,0,0,1-.874-.2,1.164,1.164,0,0,1-.4-.385A.873.873,0,0,1,.266-.991a.312.312,0,0,1,.092-.226.312.312,0,0,1,.233-.094.276.276,0,0,1,.194.073.576.576,0,0,1,.135.217,1.452,1.452,0,0,0,.148.286.6.6,0,0,0,.223.189.826.826,0,0,0,.378.074.854.854,0,0,0,.524-.15A.452.452,0,0,0,2.4-1a.4.4,0,0,0-.109-.289.7.7,0,0,0-.281-.17q-.172-.059-.46-.125A3.376,3.376,0,0,1,.9-1.791a1.044,1.044,0,0,1-.413-.33.856.856,0,0,1-.153-.519A.891.891,0,0,1,.5-3.164a1.016,1.016,0,0,1,.466-.353A1.91,1.91,0,0,1,1.68-3.64a1.775,1.775,0,0,1,.57.082,1.2,1.2,0,0,1,.4.217.908.908,0,0,1,.232.284.656.656,0,0,1,.073.291.343.343,0,0,1-.092.233.292.292,0,0,1-.228.1.263.263,0,0,1-.189-.062.839.839,0,0,1-.14-.2.924.924,0,0,0-.234-.316.685.685,0,0,0-.439-.114A.761.761,0,0,0,1.178-3a.359.359,0,0,0-.172.3.3.3,0,0,0,.059.186.493.493,0,0,0,.161.134,1.086,1.086,0,0,0,.208.088q.1.032.347.093a5.44,5.44,0,0,1,.548.156,1.665,1.665,0,0,1,.417.208.854.854,0,0,1,.269.309A.989.989,0,0,1,3.11-1.074ZM4.934-.54,4.36-2.82V-.349a.45.45,0,0,1-.092.308.31.31,0,0,1-.243.1.31.31,0,0,1-.239-.1.445.445,0,0,1-.093-.309V-3.181A.355.355,0,0,1,3.816-3.5a.585.585,0,0,1,.33-.082H4.37a.857.857,0,0,1,.294.037.247.247,0,0,1,.135.132,2.046,2.046,0,0,1,.1.31l.52,1.96L5.94-3.1a2.046,2.046,0,0,1,.1-.31.247.247,0,0,1,.135-.132.857.857,0,0,1,.294-.037h.225a.585.585,0,0,1,.33.082.355.355,0,0,1,.122.316V-.349a.45.45,0,0,1-.092.308.313.313,0,0,1-.245.1.305.305,0,0,1-.237-.1.446.446,0,0,1-.093-.308V-2.82L5.906-.54q-.056.222-.092.326a.45.45,0,0,1-.131.189A.381.381,0,0,1,5.42.061.4.4,0,0,1,5.205.006a.4.4,0,0,1-.137-.14.8.8,0,0,1-.077-.189Q4.963-.427,4.934-.54Zm5.281-2.441H9.424v2.6a.479.479,0,0,1-.1.333.336.336,0,0,1-.259.109A.341.341,0,0,1,8.8-.049a.475.475,0,0,1-.1-.332v-2.6H7.91a.4.4,0,0,1-.276-.082.277.277,0,0,1-.09-.216.274.274,0,0,1,.094-.22.407.407,0,0,1,.272-.081h2.3a.405.405,0,0,1,.28.083.279.279,0,0,1,.092.217.274.274,0,0,1-.093.216A.41.41,0,0,1,10.215-2.981ZM12.4-1.394h-.664V-.381a.473.473,0,0,1-.1.33.335.335,0,0,1-.259.112.338.338,0,0,1-.264-.111.472.472,0,0,1-.1-.326V-3.135a.451.451,0,0,1,.11-.342.5.5,0,0,1,.349-.1h.93a2.438,2.438,0,0,1,.635.063.945.945,0,0,1,.38.2.914.914,0,0,1,.243.347,1.22,1.22,0,0,1,.083.461,1.019,1.019,0,0,1-.337.829A1.532,1.532,0,0,1,12.4-1.394Zm-.176-1.641h-.488v1.094h.488a1.459,1.459,0,0,0,.428-.054.5.5,0,0,0,.262-.176.525.525,0,0,0,.09-.32.542.542,0,0,0-.139-.386A.927.927,0,0,0,12.229-3.035Z" transform="translate(5.811 18.811)" fill="rgba(51,56,112,0.5)"/>
    </g>
  </g>
</svg>
