<svg xmlns="http://www.w3.org/2000/svg" xmlns:xlink="http://www.w3.org/1999/xlink" width="20" height="20" viewBox="0 0 20 20">
  <defs>
    <clipPath id="clip-path">
      <rect id="icon" width="20" height="20" transform="translate(218 23)" fill="#333870"/>
    </clipPath>
  </defs>
  <g id="Mask_Group_1" data-name="Mask Group 1" transform="translate(-218 -23)" clip-path="url(#clip-path)">
    <g id="gmail_1_" data-name="gmail (1)" transform="translate(218 23)">
      <path id="Path_15" data-name="Path 15" d="M0,0H15V15H0Z" transform="translate(2.5 2.5)" fill="rgba(51,56,112,0.1)"/>
      <path id="Path_10" data-name="Path 10" d="M10,11.578,17.5,17.5V5.807Z" fill="rgba(51,56,112,0.1)"/>
      <path id="Path_11" data-name="Path 11" d="M18.125,2.5H17.5L10,8.422,2.5,2.5H1.875A1.876,1.876,0,0,0,0,4.375v11.25A1.876,1.876,0,0,0,1.875,17.5H2.5V5.807L10,11.576l7.5-5.77V17.5h.625A1.876,1.876,0,0,0,20,15.625V4.375A1.876,1.876,0,0,0,18.125,2.5Z" fill="#333870"/>
    </g>
  </g>
</svg>
