<svg id="duotone-search" xmlns="http://www.w3.org/2000/svg" width="18.5" height="18.5" viewBox="0 0 18.5 18.5">
  <path id="Path_5" data-name="Path 5" d="M18,10.5A7.5,7.5,0,1,1,10.5,3,7.5,7.5,0,0,1,18,10.5Z" transform="translate(-2.25 -2.25)" fill="#fff" opacity="0.15"/>
  <path id="Path_6" data-name="Path 6" d="M19.47,20.53A.75.75,0,0,0,20.53,19.47ZM17.25,10.5a6.75,6.75,0,0,1-6.75,6.75v1.5a8.25,8.25,0,0,0,8.25-8.25ZM10.5,17.25A6.75,6.75,0,0,1,3.75,10.5H2.25a8.25,8.25,0,0,0,8.25,8.25ZM3.75,10.5A6.75,6.75,0,0,1,10.5,3.75V2.25A8.25,8.25,0,0,0,2.25,10.5ZM10.5,3.75a6.75,6.75,0,0,1,6.75,6.75h1.5A8.25,8.25,0,0,0,10.5,2.25ZM20.53,19.47l-4.187-4.188-1.061,1.061L19.47,20.53Z" transform="translate(-2.25 -2.25)" fill="#fff"/>
</svg>
