<svg id="google" xmlns="http://www.w3.org/2000/svg" width="50" height="50" viewBox="0 0 50 50">
  <path id="Path_26" data-name="Path 26" d="M268.964,201.991a25.5,25.5,0,0,0-.449-4.775A1.5,1.5,0,0,0,267.043,196H243.5a1.5,1.5,0,0,0-1.5,1.5v8.988a1.5,1.5,0,0,0,1.5,1.5h12.081a13.415,13.415,0,0,1-3.008,3.958l8.467,8.467A25.373,25.373,0,0,0,268.964,201.991Z" transform="translate(-218.964 -177.557)" fill="#c2c4d4"/>
  <path id="Path_27" data-name="Path 27" d="M65.769,11.984a13.347,13.347,0,0,1,8.084,2.7,1.5,1.5,0,0,0,1.959-.139L82.2,8.153a1.5,1.5,0,0,0-.1-2.208A25.438,25.438,0,0,0,44.663,11.23l8.793,8.793a13.486,13.486,0,0,1,12.313-8.039Z" transform="translate(-40.203)" fill="#333870"/>
  <path id="Path_28" data-name="Path 28" d="M65.769,331.523a25.3,25.3,0,0,0,15.24-5.112l-8.626-8.626A13.42,13.42,0,0,1,53.456,311.5l-8.793,8.793A25.461,25.461,0,0,0,65.769,331.523Z" transform="translate(-40.203 -281.523)" fill="#9598b5"/>
  <path id="Path_29" data-name="Path 29" d="M12.2,153.986a10.781,10.781,0,0,1,0-4.315l-9.4-9.4a25.234,25.234,0,0,0,0,23.115Z" transform="translate(0 -126.829)" fill="#9598b5"/>
</svg>
