<svg id="headphones" xmlns="http://www.w3.org/2000/svg" width="19.946" height="19.946" viewBox="0 0 19.946 19.946">
  <path id="Path_33" data-name="Path 33" d="M12.524,7.423A.831.831,0,0,0,13.6,6.951a8.315,8.315,0,0,1,15.489,0,.831.831,0,0,0,1.549-.605,9.977,9.977,0,0,0-18.586,0A.831.831,0,0,0,12.524,7.423Zm0,0" transform="translate(-11.372)" fill="#FD8967"/>
  <path id="Path_34" data-name="Path 34" d="M16.576,69.895a6.645,6.645,0,0,0-13.205,0,4.154,4.154,0,0,0,.785,8.234.831.831,0,0,0,.831-.831V70.649a4.987,4.987,0,1,1,9.973,0v7.48a.832.832,0,0,1-.831.831H12.466a.832.832,0,0,1-.831-.831.831.831,0,0,0-1.662,0,2.5,2.5,0,0,0,2.493,2.493h1.662a2.5,2.5,0,0,0,2.493-2.493v-.084a4.154,4.154,0,0,0-.046-8.15ZM1.662,73.973a2.5,2.5,0,0,1,1.662-2.348v4.7A2.5,2.5,0,0,1,1.662,73.973Zm14.96,2.348v-4.7a2.489,2.489,0,0,1,0,4.7Zm0,0" transform="translate(0 -60.676)" fill="#FD8967"/>
</svg>
