<svg xmlns="http://www.w3.org/2000/svg" width="41.672" height="50" viewBox="0 0 41.672 50">
  <path id="office" d="M83.556,4.207,68.972.041a1.042,1.042,0,0,0-.688.04l-25,10.417a1.042,1.042,0,0,0-.64.96V38.542a1.042,1.042,0,0,0,1.031,1.042,1.042,1.042,0,0,0-.319,2.031l25,8.334a1.073,1.073,0,0,0,.329.052,1.042,1.042,0,0,0,.285-.042l14.584-4.167a1.042,1.042,0,0,0,.756-1V5.208A1.042,1.042,0,0,0,83.556,4.207Zm-39.4,35.266,6.25-3.125a1.042,1.042,0,0,0,.575-.931v-22.1l18.75-4.688V43.577L43.845,39.6a.9.9,0,0,0-.148-.013A1.055,1.055,0,0,0,44.153,39.473Z" transform="translate(-42.641 0)" fill="#333870"/>
</svg>
