<svg xmlns="http://www.w3.org/2000/svg" xmlns:xlink="http://www.w3.org/1999/xlink" width="50.035" height="49.965" viewBox="0 0 50.035 49.965">
  <defs>
    <clipPath id="clip-path">
      <rect id="icon" width="50.035" height="49.965" transform="translate(217.965 23)" fill="#333870"/>
    </clipPath>
  </defs>
  <g id="Mask_Group_2" data-name="Mask Group 2" transform="translate(-217.965 -23)" clip-path="url(#clip-path)">
    <g id="outlook_2_" data-name="outlook (2)" transform="translate(217.965 24.528)">
      <path id="Path_12" data-name="Path 12" d="M33.454,4.375H11.564a1.564,1.564,0,0,0,0,3.127H28.9l-9.607,7.471L12.4,10.592l-1.676,2.639L18.543,18.2a1.565,1.565,0,0,0,1.8-.084L31.89,9.135V29.393H11.564a1.564,1.564,0,0,0,0,3.127h21.89a1.564,1.564,0,0,0,1.564-1.564V5.939A1.564,1.564,0,0,0,33.454,4.375Z" transform="translate(15.017 5.008)" fill="rgba(51,56,112,0.5)"/>
      <path id="Path_13" data-name="Path 13" d="M27.578.986A1.536,1.536,0,0,0,26.293.655L1.276,5.346A1.559,1.559,0,0,0,0,6.881v34.4a1.562,1.562,0,0,0,1.276,1.535l25.017,4.691a1.471,1.471,0,0,0,.288.028,1.564,1.564,0,0,0,1.564-1.564V2.19A1.559,1.559,0,0,0,27.578.986Z" transform="translate(0 -0.625)" fill="#333870"/>
      <path id="Path_14" data-name="Path 14" d="M10.318,25.638c-4.309,0-7.818-4.209-7.818-9.382s3.509-9.381,7.818-9.381,7.818,4.209,7.818,9.381S14.627,25.638,10.318,25.638Zm0-15.636c-2.586,0-4.691,2.805-4.691,6.254s2.1,6.254,4.691,6.254,4.691-2.805,4.691-6.254S12.9,10,10.318,10Z" transform="translate(3.754 8.763)" fill="rgba(255,255,255,0.7)"/>
    </g>
  </g>
</svg>
