<svg xmlns="http://www.w3.org/2000/svg" width="17.5" height="17.5" viewBox="0 0 17.5 17.5">
  <g id="duotone-info-round" transform="translate(-3.25 -3.25)">
    <path id="Path_22" data-name="Path 22" d="M4,8A4,4,0,0,1,8,4h8a4,4,0,0,1,4,4v8a4,4,0,0,1-4,4H8a4,4,0,0,1-4-4Z" fill="#fd8967" opacity="0.15"/>
    <path id="Path_23" data-name="Path 23" d="M11.25,17a.75.75,0,0,0,1.5,0Zm1.5-7a.75.75,0,0,0-1.5,0Zm-1.5-2.99a.75.75,0,0,0,1.5,0ZM12.75,7a.75.75,0,0,0-1.5,0Zm0,10V10h-1.5v7Zm0-9.99V7h-1.5v.01ZM8,4.75h8V3.25H8ZM19.25,8v8h1.5V8ZM16,19.25H8v1.5h8ZM4.75,16V8H3.25v8ZM8,19.25A3.25,3.25,0,0,1,4.75,16H3.25A4.75,4.75,0,0,0,8,20.75ZM19.25,16A3.25,3.25,0,0,1,16,19.25v1.5A4.75,4.75,0,0,0,20.75,16ZM16,4.75A3.25,3.25,0,0,1,19.25,8h1.5A4.75,4.75,0,0,0,16,3.25ZM8,3.25A4.75,4.75,0,0,0,3.25,8h1.5A3.25,3.25,0,0,1,8,4.75Z" fill="#fd8967"/>
  </g>
</svg>
