<svg id="yahoo" xmlns="http://www.w3.org/2000/svg" width="50" height="50" viewBox="0 0 50 50">
  <path id="Path_24" data-name="Path 24" d="M25,0A25,25,0,1,1,0,25,25,25,0,0,1,25,0Z" transform="translate(0 0)" fill="#333870"/>
  <path id="Path_25" data-name="Path 25" d="M81.7,95.184l.027,0,.828-.922-.041,0,.088-.137H71l.447,1.587H74.61l-5.327,4.929c-1.087-1.586-3.635-5.23-5.413-7.964h3.3V91.544l.045-.323-.045-.006v-.131H54.631v1.586h3.923c1.523,1.257,8.127,9.275,8.367,10.04.1.717.234,4.949-.05,5.268-.342.492-3.915.227-4.544.273L62.3,109.8c1.15.034,4.6,0,5.763,0,2.293,0,6.31-.059,6.875-.014l.07-1.472-4.616-.069a50.133,50.133,0,0,1-.106-5.336c.436-1.332,7.519-6.847,8.247-7.055l.686-.155h2.14Zm-1.731,11,2.006.153,2.339-8.576c-.391-.014-3.938-.331-4.4-.417Zm-.347,1.375.011,2.095,1.015.084,1.1.077.322-2.05-1.156-.053Z" transform="translate(-45.252 -75.448)" fill="#f8f8fa"/>
</svg>
